<mxfile host="app.diagrams.net" modified="2024-01-19T16:07:06.623Z" agent="Mozilla/5.0 (Windows NT 10.0; Win64; x64) AppleWebKit/537.36 (KHTML, like Gecko) Chrome/120.0.0.0 Safari/537.36" etag="N6RzbTbHRghiNQuNK5aX" version="22.1.21" type="device">
  <diagram name="Page-1" id="CqUbiwOvytCzv99FlpGm">
    <mxGraphModel dx="1621" dy="630" grid="0" gridSize="10" guides="1" tooltips="1" connect="1" arrows="1" fold="1" page="0" pageScale="1" pageWidth="850" pageHeight="1100" math="0" shadow="0">
      <root>
        <mxCell id="0" />
        <mxCell id="1" parent="0" />
        <mxCell id="XYnnE-PNAu_jFsiBg7id-3" value="&lt;font style=&quot;font-size: 18px;&quot;&gt;Mobile Simulated Container&lt;/font&gt;" style="swimlane;whiteSpace=wrap;html=1;" parent="1" vertex="1">
          <mxGeometry x="-17" y="400" width="284" height="146" as="geometry" />
        </mxCell>
        <mxCell id="XYnnE-PNAu_jFsiBg7id-4" value="&lt;font style=&quot;font-size: 18px;&quot;&gt;&lt;b style=&quot;&quot;&gt;ONNX Models&lt;/b&gt;&lt;/font&gt;" style="text;html=1;align=center;verticalAlign=middle;resizable=0;points=[];autosize=1;strokeColor=none;fillColor=none;" parent="XYnnE-PNAu_jFsiBg7id-3" vertex="1">
          <mxGeometry x="0.5" y="38" width="137" height="34" as="geometry" />
        </mxCell>
        <mxCell id="XYnnE-PNAu_jFsiBg7id-6" value="&lt;font style=&quot;font-size: 18px;&quot;&gt;&lt;b style=&quot;&quot;&gt;ONNX Runtime&lt;/b&gt;&lt;/font&gt;" style="text;html=1;align=center;verticalAlign=middle;resizable=0;points=[];autosize=1;strokeColor=none;fillColor=none;" parent="XYnnE-PNAu_jFsiBg7id-3" vertex="1">
          <mxGeometry x="135" y="38" width="147" height="34" as="geometry" />
        </mxCell>
        <mxCell id="XYnnE-PNAu_jFsiBg7id-7" value="&lt;b style=&quot;&quot;&gt;&lt;font style=&quot;font-size: 18px;&quot;&gt;CPU= 4 Cores&lt;/font&gt;&lt;/b&gt;" style="text;html=1;align=center;verticalAlign=middle;resizable=0;points=[];autosize=1;strokeColor=none;fillColor=none;" parent="XYnnE-PNAu_jFsiBg7id-3" vertex="1">
          <mxGeometry x="3.5" y="85" width="137" height="34" as="geometry" />
        </mxCell>
        <mxCell id="XYnnE-PNAu_jFsiBg7id-8" value="&lt;b style=&quot;&quot;&gt;&lt;font style=&quot;font-size: 18px;&quot;&gt;RAM= 4 GB&lt;/font&gt;&lt;/b&gt;" style="text;html=1;align=center;verticalAlign=middle;resizable=0;points=[];autosize=1;strokeColor=none;fillColor=none;" parent="XYnnE-PNAu_jFsiBg7id-3" vertex="1">
          <mxGeometry x="150.5" y="85" width="116" height="34" as="geometry" />
        </mxCell>
        <mxCell id="XYnnE-PNAu_jFsiBg7id-9" value="&lt;font style=&quot;font-size: 18px;&quot;&gt;Edge Simulated Container&lt;/font&gt;" style="swimlane;whiteSpace=wrap;html=1;" parent="1" vertex="1">
          <mxGeometry x="332" y="399" width="271" height="146" as="geometry" />
        </mxCell>
        <mxCell id="XYnnE-PNAu_jFsiBg7id-11" value="&lt;font style=&quot;font-size: 18px;&quot;&gt;&lt;b style=&quot;&quot;&gt;ONNX Runtime&lt;/b&gt;&lt;/font&gt;" style="text;html=1;align=center;verticalAlign=middle;resizable=0;points=[];autosize=1;strokeColor=none;fillColor=none;" parent="XYnnE-PNAu_jFsiBg7id-9" vertex="1">
          <mxGeometry x="131.5" y="37" width="147" height="34" as="geometry" />
        </mxCell>
        <mxCell id="XYnnE-PNAu_jFsiBg7id-12" value="&lt;b style=&quot;&quot;&gt;&lt;font style=&quot;font-size: 18px;&quot;&gt;CPU= 8 Cores&lt;/font&gt;&lt;/b&gt;" style="text;html=1;align=center;verticalAlign=middle;resizable=0;points=[];autosize=1;strokeColor=none;fillColor=none;" parent="XYnnE-PNAu_jFsiBg7id-9" vertex="1">
          <mxGeometry y="86" width="137" height="34" as="geometry" />
        </mxCell>
        <mxCell id="XYnnE-PNAu_jFsiBg7id-13" value="&lt;b style=&quot;&quot;&gt;&lt;font style=&quot;font-size: 18px;&quot;&gt;RAM= 16 GB&lt;/font&gt;&lt;/b&gt;" style="text;html=1;align=center;verticalAlign=middle;resizable=0;points=[];autosize=1;strokeColor=none;fillColor=none;" parent="XYnnE-PNAu_jFsiBg7id-9" vertex="1">
          <mxGeometry x="142" y="86" width="127" height="34" as="geometry" />
        </mxCell>
        <mxCell id="XYnnE-PNAu_jFsiBg7id-10" value="&lt;font style=&quot;font-size: 18px;&quot;&gt;&lt;b style=&quot;&quot;&gt;ONNX Models&lt;/b&gt;&lt;/font&gt;" style="text;html=1;align=center;verticalAlign=middle;resizable=0;points=[];autosize=1;strokeColor=none;fillColor=none;" parent="XYnnE-PNAu_jFsiBg7id-9" vertex="1">
          <mxGeometry x="-5" y="37" width="137" height="34" as="geometry" />
        </mxCell>
        <mxCell id="XYnnE-PNAu_jFsiBg7id-14" value="&lt;font style=&quot;font-size: 18px;&quot;&gt;Cloud Simulated Container&lt;/font&gt;" style="swimlane;whiteSpace=wrap;html=1;" parent="1" vertex="1">
          <mxGeometry x="730" y="403" width="296" height="146" as="geometry" />
        </mxCell>
        <mxCell id="XYnnE-PNAu_jFsiBg7id-15" value="&lt;font style=&quot;font-size: 18px;&quot;&gt;&lt;b style=&quot;&quot;&gt;ONNX Models&lt;/b&gt;&lt;/font&gt;" style="text;html=1;align=center;verticalAlign=middle;resizable=0;points=[];autosize=1;strokeColor=none;fillColor=none;" parent="XYnnE-PNAu_jFsiBg7id-14" vertex="1">
          <mxGeometry x="12" y="34" width="137" height="34" as="geometry" />
        </mxCell>
        <mxCell id="XYnnE-PNAu_jFsiBg7id-16" value="&lt;font style=&quot;font-size: 18px;&quot;&gt;&lt;b style=&quot;&quot;&gt;ONNX Runtime&lt;/b&gt;&lt;/font&gt;" style="text;html=1;align=center;verticalAlign=middle;resizable=0;points=[];autosize=1;strokeColor=none;fillColor=none;" parent="XYnnE-PNAu_jFsiBg7id-14" vertex="1">
          <mxGeometry x="141" y="34" width="147" height="34" as="geometry" />
        </mxCell>
        <mxCell id="XYnnE-PNAu_jFsiBg7id-17" value="&lt;b style=&quot;&quot;&gt;&lt;font style=&quot;font-size: 18px;&quot;&gt;CPU = 16 Cores&lt;/font&gt;&lt;/b&gt;" style="text;html=1;align=center;verticalAlign=middle;resizable=0;points=[];autosize=1;strokeColor=none;fillColor=none;" parent="XYnnE-PNAu_jFsiBg7id-14" vertex="1">
          <mxGeometry x="4.5" y="70" width="152" height="34" as="geometry" />
        </mxCell>
        <mxCell id="XYnnE-PNAu_jFsiBg7id-18" value="&lt;b style=&quot;&quot;&gt;&lt;font style=&quot;font-size: 18px;&quot;&gt;RAM = 64 GB&lt;/font&gt;&lt;/b&gt;" style="text;html=1;align=center;verticalAlign=middle;resizable=0;points=[];autosize=1;strokeColor=none;fillColor=none;" parent="XYnnE-PNAu_jFsiBg7id-14" vertex="1">
          <mxGeometry x="154" y="71" width="131" height="34" as="geometry" />
        </mxCell>
        <mxCell id="XYnnE-PNAu_jFsiBg7id-19" value="&lt;b style=&quot;&quot;&gt;&lt;font style=&quot;font-size: 18px;&quot;&gt;GPU A100&lt;/font&gt;&lt;/b&gt;" style="text;html=1;align=center;verticalAlign=middle;resizable=0;points=[];autosize=1;strokeColor=none;fillColor=none;" parent="XYnnE-PNAu_jFsiBg7id-14" vertex="1">
          <mxGeometry x="100" y="104" width="104" height="34" as="geometry" />
        </mxCell>
        <mxCell id="XYnnE-PNAu_jFsiBg7id-23" value="" style="curved=1;endArrow=classic;html=1;rounded=0;exitX=0.5;exitY=0;exitDx=0;exitDy=0;entryX=0.5;entryY=0;entryDx=0;entryDy=0;" parent="1" source="XYnnE-PNAu_jFsiBg7id-3" target="XYnnE-PNAu_jFsiBg7id-9" edge="1">
          <mxGeometry width="50" height="50" relative="1" as="geometry">
            <mxPoint x="398" y="544" as="sourcePoint" />
            <mxPoint x="448" y="494" as="targetPoint" />
            <Array as="points">
              <mxPoint x="278" y="283" />
            </Array>
          </mxGeometry>
        </mxCell>
        <mxCell id="XYnnE-PNAu_jFsiBg7id-24" value="" style="curved=1;endArrow=classic;html=1;rounded=0;exitX=0.5;exitY=0;exitDx=0;exitDy=0;entryX=0.5;entryY=0;entryDx=0;entryDy=0;" parent="1" source="XYnnE-PNAu_jFsiBg7id-9" target="XYnnE-PNAu_jFsiBg7id-14" edge="1">
          <mxGeometry width="50" height="50" relative="1" as="geometry">
            <mxPoint x="531" y="371" as="sourcePoint" />
            <mxPoint x="896" y="371" as="targetPoint" />
            <Array as="points">
              <mxPoint x="657" y="272" />
            </Array>
          </mxGeometry>
        </mxCell>
        <mxCell id="XYnnE-PNAu_jFsiBg7id-29" value="" style="curved=1;endArrow=classic;html=1;rounded=0;exitX=0.5;exitY=1;exitDx=0;exitDy=0;entryX=0.5;entryY=1;entryDx=0;entryDy=0;" parent="1" source="XYnnE-PNAu_jFsiBg7id-9" target="XYnnE-PNAu_jFsiBg7id-3" edge="1">
          <mxGeometry width="50" height="50" relative="1" as="geometry">
            <mxPoint x="452" y="680" as="sourcePoint" />
            <mxPoint x="94" y="680" as="targetPoint" />
            <Array as="points">
              <mxPoint x="289" y="665" />
            </Array>
          </mxGeometry>
        </mxCell>
        <mxCell id="XYnnE-PNAu_jFsiBg7id-30" value="" style="curved=1;endArrow=classic;html=1;rounded=0;exitX=0.5;exitY=1;exitDx=0;exitDy=0;entryX=0.5;entryY=1;entryDx=0;entryDy=0;" parent="1" source="XYnnE-PNAu_jFsiBg7id-14" target="XYnnE-PNAu_jFsiBg7id-9" edge="1">
          <mxGeometry width="50" height="50" relative="1" as="geometry">
            <mxPoint x="863" y="653" as="sourcePoint" />
            <mxPoint x="474" y="649" as="targetPoint" />
            <Array as="points">
              <mxPoint x="669" y="675" />
            </Array>
          </mxGeometry>
        </mxCell>
        <mxCell id="XYnnE-PNAu_jFsiBg7id-36" value="" style="shape=partialRectangle;whiteSpace=wrap;html=1;top=0;left=0;fillColor=none;" parent="1" vertex="1">
          <mxGeometry x="-34" y="308.5" width="654.5" height="342" as="geometry" />
        </mxCell>
        <mxCell id="XYnnE-PNAu_jFsiBg7id-37" value="" style="shape=partialRectangle;whiteSpace=wrap;html=1;bottom=0;right=0;fillColor=none;" parent="1" vertex="1">
          <mxGeometry x="-34" y="309" width="653.5" height="342" as="geometry" />
        </mxCell>
        <mxCell id="XYnnE-PNAu_jFsiBg7id-38" value="&lt;font style=&quot;font-size: 18px;&quot;&gt;&lt;b style=&quot;&quot;&gt;Server 1&lt;/b&gt;&lt;/font&gt;" style="text;html=1;align=center;verticalAlign=middle;resizable=0;points=[];autosize=1;strokeColor=none;fillColor=none;" parent="1" vertex="1">
          <mxGeometry x="246" y="259" width="89" height="34" as="geometry" />
        </mxCell>
        <mxCell id="XYnnE-PNAu_jFsiBg7id-39" value="" style="shape=partialRectangle;whiteSpace=wrap;html=1;bottom=0;right=0;fillColor=none;" parent="1" vertex="1">
          <mxGeometry x="721" y="309" width="330" height="342" as="geometry" />
        </mxCell>
        <mxCell id="XYnnE-PNAu_jFsiBg7id-40" value="" style="shape=partialRectangle;whiteSpace=wrap;html=1;top=0;left=0;fillColor=none;" parent="1" vertex="1">
          <mxGeometry x="722" y="309" width="329" height="341" as="geometry" />
        </mxCell>
        <mxCell id="XYnnE-PNAu_jFsiBg7id-41" value="&lt;font style=&quot;font-size: 18px;&quot;&gt;&lt;b style=&quot;&quot;&gt;Server 2&lt;/b&gt;&lt;/font&gt;" style="text;html=1;align=center;verticalAlign=middle;resizable=0;points=[];autosize=1;strokeColor=none;fillColor=none;" parent="1" vertex="1">
          <mxGeometry x="833.5" y="259" width="89" height="34" as="geometry" />
        </mxCell>
        <mxCell id="XYnnE-PNAu_jFsiBg7id-42" value="&lt;font style=&quot;font-size: 18px;&quot;&gt;&lt;b style=&quot;&quot;&gt;1Mbps&lt;/b&gt;&lt;/font&gt;" style="text;html=1;align=center;verticalAlign=middle;resizable=0;points=[];autosize=1;strokeColor=none;fillColor=none;" parent="1" vertex="1">
          <mxGeometry x="626" y="341" width="75" height="34" as="geometry" />
        </mxCell>
        <mxCell id="XYnnE-PNAu_jFsiBg7id-44" value="&lt;font style=&quot;font-size: 18px;&quot;&gt;&lt;b style=&quot;&quot;&gt;1Mbps&lt;/b&gt;&lt;/font&gt;" style="text;html=1;align=center;verticalAlign=middle;resizable=0;points=[];autosize=1;strokeColor=none;fillColor=none;" parent="1" vertex="1">
          <mxGeometry x="636" y="578" width="75" height="34" as="geometry" />
        </mxCell>
        <mxCell id="XYnnE-PNAu_jFsiBg7id-45" value="&lt;font style=&quot;font-size: 18px;&quot;&gt;&lt;b style=&quot;&quot;&gt;200Mbps&lt;/b&gt;&lt;/font&gt;" style="text;html=1;align=center;verticalAlign=middle;resizable=0;points=[];autosize=1;strokeColor=none;fillColor=none;" parent="1" vertex="1">
          <mxGeometry x="240" y="343" width="95" height="34" as="geometry" />
        </mxCell>
        <mxCell id="XYnnE-PNAu_jFsiBg7id-46" value="&lt;font style=&quot;font-size: 18px;&quot;&gt;&lt;b style=&quot;&quot;&gt;200Mbps&lt;/b&gt;&lt;/font&gt;" style="text;html=1;align=center;verticalAlign=middle;resizable=0;points=[];autosize=1;strokeColor=none;fillColor=none;" parent="1" vertex="1">
          <mxGeometry x="240" y="562" width="95" height="34" as="geometry" />
        </mxCell>
      </root>
    </mxGraphModel>
  </diagram>
</mxfile>
